<svg width="113" height="35" viewBox="0 0 113 35" fill="none"><path d="M1.61921 3.00171V3.3126H0.987718V5.13421H0.633111V3.3126H0V3.00171H1.61921ZM4.37187 5.13421H4.03021V3.43728H4.01402L3.32424 5.13907H3.0004L2.31547 3.45509H2.29928V5.13421H1.96734V3.00171H2.50654L3.16394 4.62092H3.17851L3.83429 3.00171H4.38482L4.37187 5.13421Z" fill="#ffffff" style="
    color: white;
"></path><path d="M39.2448 24.717C39.0189 26.4473 38.3627 28.0934 37.3361 29.5045C36.3096 30.9156 34.9455 32.0468 33.3687 32.7944C31.792 33.542 30.0529 33.8822 28.3106 33.7839C26.5684 33.6856 24.8786 33.152 23.396 32.2317C26.252 34.0602 29.61 34.9458 32.9962 34.7636C36.3825 34.5815 39.6261 33.3408 42.2695 31.2165C48.5407 26.1791 48.8678 18.7486 46.4794 11.671C45.5079 8.79042 44.9881 5.8969 47.6129 3.78545C47.6407 3.76219 47.6699 3.74057 47.7003 3.72068C48.3836 3.1912 49.951 2.6941 49.951 2.6941C49.2285 2.77718 48.4967 2.71514 47.7985 2.5116C47.1003 2.30807 46.4498 1.96715 45.8852 1.50884C42.8087 -0.976649 38.2393 -0.294962 35.8461 2.84469C35.7991 2.90945 35.7522 2.97746 35.7052 3.04385C33.7281 5.95843 34.2949 9.86882 36.8775 12.2733L36.918 12.3057C34.7968 10.3206 31.8547 9.16608 28.66 9.16608H0C0.81932 10.5764 1.78113 11.4799 3.05383 12.0531C4.43825 12.6749 6.23072 12.9388 9.04491 12.9388H29.3563C32.3178 13.1008 35.3668 14.5386 37.2904 17.1715C38.8562 19.3169 39.5751 21.7376 39.2335 24.7267L39.2448 24.717Z" fill="#ffffff"></path><path d="M36.5538 22.183C36.256 21.6683 35.8936 21.1938 35.4754 20.771C33.9469 19.2295 31.7415 18.4491 28.9225 18.4491H13.3068C10.5461 18.4491 8.80058 18.1932 7.46635 17.5958C6.42649 17.13 5.54522 16.3709 4.93066 15.4114H28.8351C32.0735 15.4114 33.9712 17.0841 34.9881 18.4879C35.7663 19.5946 36.3 20.8541 36.5538 22.183Z" fill="#00DFAC"></path><path d="M34.6272 25.0311C33.4419 24.4045 31.6511 24.4045 28.9227 24.4045H18.5225C15.7698 24.4045 14.0162 24.1486 12.6836 23.5495C11.6441 23.0871 10.7627 22.3306 10.1479 21.3733H29.1834C31.9895 21.3733 33.4273 22.9294 34.041 23.8555C34.2805 24.2238 34.4772 24.6182 34.6272 25.0311Z" fill="#00DFAC"></path><path d="M23.7393 30.3599C20.9769 30.3599 19.2314 30.1041 17.8988 29.505C17.2995 29.2393 16.7514 28.8705 16.2796 28.4153C15.9362 28.0843 15.6295 27.7173 15.3647 27.3207H29.5183C31.0565 27.3207 32.3551 27.7773 33.3866 28.676C32.9831 29.013 32.5346 29.2921 32.0539 29.505C30.723 30.1041 28.9774 30.3599 26.2151 30.3599H23.7393Z" fill="#00DFAC"></path><path d="M60.0869 25.7177V22.944L70.6361 10.421H62.1044C61.5696 10.421 61.0567 10.2087 60.6784 9.83066C60.3001 9.45265 60.0873 8.9399 60.0869 8.4051V7.48215H75.0387V10.2639L64.4976 22.7804H75.0387V23.7018C75.0387 23.9666 74.9865 24.2289 74.8851 24.4736C74.7837 24.7183 74.635 24.9406 74.4477 25.1278C74.2603 25.315 74.0379 25.4635 73.7931 25.5647C73.5483 25.6659 73.286 25.7179 73.0212 25.7177H60.0869Z" fill="#ffffff"></path><path d="M90.5522 20.1702H80.301C80.3752 20.6523 80.5473 21.1142 80.8065 21.5274C81.0657 21.9406 81.4067 22.2965 81.8085 22.5731C82.6321 23.1506 83.6846 23.4394 84.966 23.4394C86.8896 23.4394 88.437 22.8807 89.6082 21.7635L89.6876 23.4297C89.7067 23.849 89.595 24.264 89.3678 24.6171C89.1407 24.9701 88.8093 25.2438 88.4197 25.4002C87.4417 25.7953 86.2543 25.9929 84.8575 25.9929C82.6068 25.9929 80.79 25.3797 79.4072 24.1534C78.0244 22.9272 77.333 21.3079 77.333 19.2958C77.333 17.3193 77.9602 15.7039 79.2145 14.4495C80.4689 13.1952 82.0757 12.568 84.0349 12.568C86.0298 12.568 87.6134 13.1266 88.7857 14.2439C89.958 15.3611 90.5468 16.8605 90.5522 18.742V20.1702ZM84.1191 15.1166C83.2296 15.1021 82.3603 15.3822 81.6466 15.9133C80.9516 16.415 80.4711 17.1603 80.301 18.0004H87.853C87.8027 17.5866 87.6698 17.1871 87.4623 16.8256C87.2549 16.464 86.977 16.1477 86.6451 15.8955C85.9661 15.3773 85.1241 15.1177 84.1191 15.1166Z" fill="#ffffff"></path><path d="M105.951 12.5632V25.7177H104.866C104.477 25.7177 104.103 25.5629 103.828 25.2875C103.552 25.0121 103.398 24.6385 103.398 24.249V23.8782C102.39 25.2891 100.843 25.994 98.7568 25.9929C96.9066 25.9929 95.3824 25.3614 94.1842 24.0985C92.986 22.8355 92.3863 21.2335 92.3853 19.2926C92.3853 17.3496 92.9849 15.7428 94.1842 14.4723C95.3835 13.2017 96.9077 12.5654 98.7568 12.5632H105.951ZM99.2232 15.1717C98.0703 15.1717 97.1317 15.5496 96.4074 16.3052C95.683 17.0608 95.3214 18.0545 95.3225 19.2862C95.3225 20.4736 95.6841 21.4527 96.4074 22.2234C97.1306 22.9942 98.0692 23.379 99.2232 23.3779C100.376 23.3779 101.314 22.9931 102.037 22.2234C102.761 21.4537 103.122 20.4747 103.122 19.2862V15.1717H99.2232Z" fill="#ffffff"></path><path d="M109.357 25.7177V8.95245C109.357 8.56295 109.512 8.1894 109.788 7.91398C110.063 7.63855 110.437 7.48383 110.826 7.48383H112.267V24.2491C112.267 24.6386 112.112 25.0122 111.837 25.2876C111.562 25.563 111.188 25.7177 110.799 25.7177H109.357Z" fill="#ffffff"></path></svg>